#!OML:ASF \\sashay\E\Suitcase\Project 1\Capture day 1\Session 1\Male1.ASF
:FULLY-SPECIFIED
:DEGREES
444
root 0.208697 17.505 -28.1901 3.36287 -0.505618 -1.09773
lowerback 8.08892 3.04129 -4.12969
upperback 1.64895 3.73174 1.20872
thorax -3.16295 1.89752 3.16263
lowerneck -16.8795 -3.52991 -5.81919
upperneck 15.016 -3.33487 -0.0700764
head 7.50191 -1.93566 0.543281
rclavicle 6.03933e-014 -1.38155e-014
rhumerus -16.4948 -17.8768 -73.8818
rradius 17.5019
rwrist -20.6781
rhand -19.5536 15.8552
rfingers 7.12502
rthumb 6.77072 -14.0166
lclavicle 6.03933e-014 -1.38155e-014
lhumerus -39.1876 4.24687 79.2861
lradius 29.8704
lwrist -5.68499
lhand -0.862869 40.7458
lfingers 7.12502
lthumb 24.7636 69.1627
rfemur -11.1585 -3.0614 20.2773
rtibia 63.8154
rfoot -0.269228 -4.34745
rtoes 7.86428
lfemur -19.42 -2.77062 -24.6563
ltibia 27.7446
lfoot -13.8132 -8.38317
ltoes 15.2404
445
root 0.208787 17.5238 -28.0906 3.16489 -0.231843 -1.30016
lowerback 8.02509 3.05054 -4.0489
upperback 1.56186 3.75433 1.24453
thorax -3.21728 1.91092 3.15241
lowerneck -16.8396 -3.62787 -5.54271
upperneck 15.3543 -3.47707 -0.389136
head 7.60006 -2.02308 0.375342
rclavicle 1.62755e-014 1.63997e-015
rhumerus -16.6796 -17.8434 -73.5924
rradius 17.8088
rwrist -21.4367
rhand -19.2998 16.1632
rfingers 7.12502
rthumb 7.01575 -13.7005
lclavicle 1.62755e-014 1.63997e-015
lhumerus -38.8232 3.59372 79.569
lradius 30.1548
lwrist -5.4367
lhand -0.942546 41.6954
lfingers 7.12502
lthumb 24.6873 70.1228
rfemur -11.9245 -2.90394 20.6009
rtibia 64.528
rfoot -0.271054 -6.10009
rtoes 12.0742
lfemur -18.5642 -2.85881 -24.3909
ltibia 27.5044
lfoot -14.0142 -8.52595
ltoes 17.0492
446
root 0.206148 17.5172 -28.0042 3.09626 0.278137 -1.03798
lowerback 7.69095 3.01273 -4.63425
upperback 1.61794 3.67421 1.30971
thorax -3.00653 1.87232 3.57559
lowerneck -16.2627 -3.71492 -5.47224
upperneck 15.0952 -3.60701 -0.648587
head 7.41275 -2.10208 0.275966
rclavicle -1.57537e-014 -2.33572e-015
rhumerus -16.6575 -17.1874 -73.323
rradius 18.3031
rwrist -22.5717
rhand -19.3364 16.0788
rfingers 7.12502
rthumb 6.98042 -13.7861
lclavicle -1.57537e-014 -2.33572e-015
lhumerus -38.153 3.60531 79.8417
lradius 30.1423
lwrist -5.54914
lhand -0.810051 41.3792
lfingers 7.12502
lthumb 24.8143 69.7892
rfemur -12.9568 -3.21417 20.376
rtibia 65.4099
rfoot -1.61244 -6.16704
rtoes 10.7016
lfemur -18.126 -2.66713 -24.8022
ltibia 27.141
lfoot -14.1814 -8.97735
ltoes 14.8887
447
root 0.216095 17.5408 -27.8883 2.93366 0.581728 -0.726426
lowerback 7.29553 2.56074 -5.17762
upperback 2.17084 3.06661 1.54894
thorax -2.19258 1.54306 4.22869
lowerneck -18.6478 -3.5364 -6.186
upperneck 16.3775 -2.98316 -0.650105
head 8.25289 -1.87092 0.414377
rclavicle 3.37437e-014 1.88845e-015
rhumerus -14.9026 -16.4014 -73.4693
rradius 17.9712
rwrist -22.6517
rhand -19.0032 16.4554
rfingers 7.12502
rthumb 7.3021 -13.3986
lclavicle 3.37437e-014 1.88845e-015
lhumerus -36.8795 5.55367 79.9396
lradius 30.0543
lwrist -5.99444
lhand -1.12492 42.0053
lfingers 7.12502
lthumb 24.5125 70.4565
rfemur -13.6903 -3.28369 19.9514
rtibia 65.8976
rfoot -2.17842 -6.5655
rtoes 12.0377
lfemur -17.3636 -2.80096 -25.2261
ltibia 27.0065
lfoot -14.489 -8.95624
ltoes 16.2449
448
root 0.213106 17.5216 -27.8048 2.85573 0.972467 -0.716168
lowerback 7.22023 2.92369 -5.62217
upperback 1.89772 3.51943 1.62447
thorax -2.51595 1.78633 4.50634
lowerneck -17.4006 -4.0698 -5.2654
upperneck 15.8797 -3.82083 -1.85318
head 7.84897 -2.32235 -0.21
rclavicle -4.19933e-015 -2.88238e-015
rhumerus -16.0811 -16.7398 -72.5469
rradius 19.0485
rwrist -23.5867
rhand -18.646 16.2504
rfingers 7.12502
rthumb 7.64681 -13.5913
lclavicle -4.19933e-015 -2.88238e-015
lhumerus -36.6366 3.56272 80.8563
lradius 30.3758
lwrist -5.12821
lhand -1.03299 42.8388
lfingers 7.12502
lthumb 24.6006 71.278
rfemur -14.7841 -3.36336 20.0086
rtibia 66.5177
rfoot -4.46257 -5.99785
rtoes 9.75263
lfemur -16.9213 -2.56416 -25.2981
ltibia 26.7665
lfoot -14.5839 -9.26984
ltoes 16.5178
